<svg xmlns="http://www.w3.org/2000/svg" xmlns:xlink="http://www.w3.org/1999/xlink" width="1920" zoomAndPan="magnify" viewBox="0 0 1440 431.999984" height="576" preserveAspectRatio="xMidYMid meet" version="1.0"><path fill="#929497" d="M 1412.625 36.449219 L 1408.460938 36.449219 L 1408.460938 45.414062 L 1412.625 45.414062 C 1414.539062 45.5625 1416.335938 45.261719 1418.101562 44.476562 C 1419.148438 43.648438 1419.675781 42.5625 1419.675781 41.25 C 1419.710938 39.789062 1419.148438 38.550781 1418.101562 37.574219 C 1416.335938 36.75 1414.539062 36.375 1412.625 36.449219 M 1413.601562 33.226562 C 1416.601562 32.960938 1419.488281 33.488281 1422.226562 34.875 C 1424.289062 36.226562 1425.261719 38.136719 1425.113281 40.613281 C 1425.148438 42.488281 1424.511719 44.101562 1423.164062 45.414062 C 1422 46.835938 1420.539062 47.699219 1418.699219 47.960938 L 1424.8125 60.449219 L 1419 60.449219 L 1413.601562 48.9375 L 1408.460938 48.9375 L 1408.460938 60.449219 L 1403.363281 60.449219 L 1403.363281 33.1875 Z M 1434.074219 47.324219 C 1434.039062 44.550781 1433.476562 41.886719 1432.425781 39.335938 C 1431.449219 36.789062 1429.949219 34.539062 1427.960938 32.625 C 1426.011719 30.601562 1423.800781 29.023438 1421.25 27.824219 C 1418.476562 26.738281 1415.585938 26.210938 1412.625 26.25 C 1409.851562 26.25 1407.1875 26.773438 1404.601562 27.824219 C 1402.050781 28.835938 1399.835938 30.300781 1397.886719 32.289062 C 1395.9375 34.3125 1394.4375 36.675781 1393.425781 39.335938 C 1392.148438 41.851562 1391.511719 44.511719 1391.511719 47.324219 C 1391.550781 49.988281 1392.074219 52.539062 1393.125 55.011719 C 1394.289062 57.636719 1395.898438 59.960938 1397.886719 62.023438 C 1399.875 63.976562 1402.164062 65.4375 1404.75 66.414062 C 1407.226562 67.386719 1409.773438 67.914062 1412.4375 67.988281 C 1415.324219 67.949219 1418.101562 67.425781 1420.761719 66.414062 C 1423.3125 65.4375 1425.488281 63.976562 1427.398438 62.023438 C 1429.460938 60.148438 1431.074219 57.898438 1432.164062 55.3125 C 1433.25 52.761719 1433.773438 50.101562 1433.8125 47.324219 M 1412.625 23.023438 C 1415.851562 23.023438 1418.925781 23.664062 1421.886719 24.9375 C 1424.886719 26.25 1427.550781 28.050781 1429.875 30.375 C 1432.085938 32.585938 1433.773438 35.175781 1434.976562 38.023438 C 1436.023438 41.0625 1436.550781 44.136719 1436.585938 47.324219 C 1436.550781 50.511719 1436.023438 53.585938 1434.976562 56.585938 C 1433.664062 59.511719 1431.863281 62.0625 1429.574219 64.273438 C 1427.324219 66.675781 1424.699219 68.363281 1421.585938 69.414062 C 1418.738281 70.6875 1415.738281 71.324219 1412.625 71.324219 C 1409.398438 71.324219 1406.289062 70.6875 1403.324219 69.414062 C 1400.363281 68.289062 1397.8125 66.5625 1395.636719 64.273438 C 1393.425781 61.914062 1391.699219 59.25 1390.5 56.25 C 1389.300781 53.398438 1388.773438 50.4375 1388.886719 47.324219 C 1388.925781 44.136719 1389.449219 41.0625 1390.5 38.023438 C 1391.8125 35.0625 1393.613281 32.398438 1395.898438 30.074219 C 1398.074219 27.75 1400.625 26.0625 1403.585938 24.9375 C 1406.476562 23.699219 1409.476562 23.023438 1412.625 23.023438 " fill-opacity="1" fill-rule="nonzero"/><path fill="#ed1b23" d="M 1129.460938 311.773438 L 1202.023438 311.773438 L 1219.613281 225.074219 L 1250.960938 225.074219 C 1260.863281 225.074219 1268.210938 227.324219 1273.085938 231.488281 C 1278.074219 235.761719 1280.4375 241.199219 1280.136719 247.800781 C 1280.175781 254.4375 1279.648438 261.039062 1278.5625 267.601562 C 1276.460938 280.125 1276.125 292.726562 1277.585938 305.324219 C 1279.800781 318.789062 1285.875 326.773438 1290.375 335.699219 L 1360.988281 335.699219 C 1353.601562 322.273438 1347.226562 312.039062 1346.210938 296.699219 C 1344.636719 279.113281 1346.210938 266.289062 1346.210938 254.511719 C 1346.550781 238.5 1346.210938 216.75 1334.0625 204.898438 C 1330.273438 201.449219 1325.925781 198.976562 1320.976562 197.550781 L 1320.976562 196.914062 C 1337.289062 194.289062 1350.710938 186.601562 1361.25 173.886719 C 1371.75 160.574219 1376.773438 145.425781 1376.289062 128.476562 C 1376.738281 117.148438 1374.75 106.3125 1370.25 95.925781 C 1366.574219 87.976562 1361.25 81.375 1354.273438 76.125 C 1346.738281 71.101562 1338.523438 67.800781 1329.636719 66.1875 C 1319.625 64.199219 1309.460938 63.226562 1299.261719 63.300781 L 1179.976562 63.300781 Z M 1240.386719 122.4375 L 1279.085938 122.4375 C 1283.210938 122.289062 1287.1875 123.039062 1290.9375 124.6875 C 1293.9375 125.773438 1296.488281 127.5 1298.625 129.824219 C 1300.5 131.851562 1301.699219 134.175781 1302.300781 136.835938 C 1303.164062 139.125 1303.574219 141.449219 1303.574219 143.886719 C 1303.648438 151.6875 1300.761719 158.210938 1294.914062 163.425781 C 1289.210938 169.164062 1280.175781 171.710938 1268.0625 171.710938 L 1230.523438 171.710938 Z M 1240.386719 122.4375 " fill-opacity="1" fill-rule="nonzero"/><path fill="#ed1b23" d="M 704.8125 367.726562 L 732.9375 238.875 L 757.574219 215.210938 L 800.738281 311.476562 L 882.261719 311.476562 L 814.164062 165.636719 L 926.738281 63.300781 L 832.386719 63.300781 L 751.800781 145.800781 L 751.164062 144.863281 L 779.625 0 L 706.425781 0 L 623.925781 404.511719 L 618.789062 430.085938 C 664.5 423.039062 689.773438 408.636719 704.8125 367.726562 " fill-opacity="1" fill-rule="nonzero"/><path fill="#ed1b23" d="M 141.710938 311.136719 L 215.925781 311.136719 L 233.8125 275.625 L 310.875 275.625 L 314.550781 311.136719 L 385.835938 311.136719 L 349.539062 62.738281 L 278.25 62.738281 Z M 296.664062 148.050781 L 297.636719 148.050781 L 305.289062 222.226562 L 260.324219 222.226562 Z M 296.664062 148.050781 " fill-opacity="1" fill-rule="nonzero"/><path fill="#ed1b23" d="M 26.886719 335.738281 L 99.488281 335.738281 L 141.039062 126.300781 L 206.625 126.300781 L 219.074219 62.699219 L 15.710938 62.699219 L 3.261719 126.300781 L 68.476562 126.300781 Z M 26.886719 335.738281 " fill-opacity="1" fill-rule="nonzero"/><path fill="#929497" d="M 724.949219 408 C 724.386719 412.425781 725.363281 416.476562 727.835938 420.148438 C 729.789062 423.375 732.449219 425.851562 735.824219 427.539062 C 739.085938 429.449219 742.613281 430.6875 746.363281 431.210938 C 750.300781 431.851562 754.238281 432.148438 758.210938 432.1875 C 763.238281 432.261719 768.148438 431.625 772.988281 430.273438 C 776.886719 429.300781 780.523438 427.726562 783.863281 425.476562 C 787.011719 423.449219 789.488281 420.789062 791.25 417.449219 C 792.976562 414.148438 793.835938 410.625 793.835938 406.914062 C 793.949219 403.6875 793.273438 400.574219 791.925781 397.648438 C 790.5 395.324219 788.699219 393.414062 786.449219 391.914062 C 783.523438 390.226562 780.449219 388.988281 777.1875 388.199219 C 773.511719 387.261719 768.898438 386.625 764.101562 385.648438 C 762.488281 385.613281 760.988281 385.164062 759.601562 384.375 C 758.4375 383.398438 757.875 382.199219 757.988281 380.664062 C 757.988281 378.75 758.851562 377.363281 760.539062 376.5 C 762.148438 375.601562 763.835938 375.1875 765.675781 375.261719 C 766.761719 375.226562 767.8125 375.335938 768.898438 375.5625 C 769.914062 375.863281 770.851562 376.273438 771.75 376.835938 C 773.550781 378.261719 774.1875 380.0625 773.699219 382.273438 L 797.324219 382.273438 C 797.886719 378.375 797.136719 374.773438 795.074219 371.4375 C 793.351562 368.398438 790.875 366.148438 787.6875 364.6875 C 784.5 363.039062 781.085938 361.949219 777.488281 361.5 C 773.773438 361.164062 769.800781 360.863281 765.976562 360.863281 C 761.773438 360.863281 757.648438 361.164062 753.488281 361.835938 C 749.625 362.699219 745.914062 364.050781 742.425781 365.960938 C 739.238281 367.949219 736.574219 370.5 734.476562 373.648438 C 732.375 377.4375 731.4375 381.488281 731.585938 385.800781 C 731.398438 389.023438 732.148438 391.988281 733.800781 394.726562 C 735.226562 396.863281 737.0625 398.585938 739.273438 399.863281 C 741.261719 401.023438 743.398438 401.851562 745.648438 402.414062 C 747.5625 402.75 749.324219 403.085938 750.449219 403.386719 C 753 403.6875 755.25 404.324219 757.164062 404.664062 C 759 404.773438 760.800781 405.074219 762.5625 405.636719 C 763.726562 406.125 764.8125 406.761719 765.789062 407.550781 C 766.800781 408.226562 767.210938 409.199219 767.0625 410.398438 C 767.101562 410.960938 766.988281 411.488281 766.761719 412.011719 C 766.6875 412.761719 766.386719 413.398438 765.789062 413.925781 C 765.113281 414.710938 764.25 415.273438 763.238281 415.539062 C 761.960938 416.289062 760.574219 416.585938 759.074219 416.511719 C 756.488281 416.699219 754.164062 416.0625 752.023438 414.601562 C 750.335938 412.914062 749.585938 410.886719 749.8125 408.488281 Z M 829.6875 401.925781 C 829.6875 400.351562 830.023438 398.25 830.324219 395.550781 C 831.039062 392.960938 831.898438 390.375 832.914062 387.863281 C 834.113281 385.648438 835.613281 383.625 837.375 381.789062 C 839.289062 380.101562 841.539062 379.273438 844.085938 379.238281 C 847.125 378.976562 849.5625 380.0625 851.4375 382.460938 C 852.9375 385.460938 853.574219 388.6875 853.386719 392.023438 C 853.3125 393.976562 853.085938 395.886719 852.75 397.800781 C 852.1875 400.238281 851.324219 402.5625 850.199219 404.8125 C 849.148438 407.101562 847.648438 409.011719 845.699219 410.550781 C 843.9375 412.3125 841.800781 413.175781 839.324219 413.136719 C 837.636719 413.175781 836.0625 412.875 834.523438 412.199219 C 833.324219 411.5625 832.386719 410.699219 831.636719 409.613281 C 830.886719 408.488281 830.363281 407.25 830.0625 405.898438 C 830.0625 404.625 829.726562 403.386719 829.726562 401.738281 M 803.210938 399.824219 C 803.136719 404.925781 803.960938 409.835938 805.726562 414.601562 C 807.488281 418.5 810.074219 421.835938 813.414062 424.5 C 816.636719 427.164062 820.238281 428.960938 824.289062 429.9375 C 828.789062 431.25 833.363281 431.886719 838.011719 431.851562 C 845.101562 432.148438 851.8125 430.726562 858.1875 427.6875 C 863.289062 425.324219 867.5625 421.914062 870.976562 417.449219 C 874.199219 413.4375 876.5625 408.976562 878.023438 404.023438 C 879.335938 399.449219 880.050781 394.761719 880.238281 389.960938 C 880.273438 385.3125 879.449219 380.851562 877.6875 376.539062 C 876.113281 372.863281 873.75 369.789062 870.636719 367.238281 C 867.449219 364.800781 863.925781 363 860.101562 361.835938 C 855.449219 360.75 850.761719 360.226562 846.039062 360.226562 C 839.664062 360.074219 833.511719 361.125 827.585938 363.414062 C 822.488281 365.175781 817.988281 367.949219 814.164062 371.738281 C 810.488281 375.414062 807.710938 379.6875 805.835938 384.523438 C 804.1875 389.511719 803.324219 394.613281 803.324219 399.863281 M 884.851562 429.9375 L 911.699219 429.9375 L 930.5625 336.261719 L 904.011719 336.261719 Z M 1013.0625 361.988281 L 986.511719 361.988281 L 980.4375 389.773438 C 979.800781 392.023438 979.460938 394.273438 978.863281 396.824219 C 978.449219 399.300781 977.699219 401.625 976.613281 403.835938 C 975.710938 405.824219 974.476562 407.511719 972.898438 408.976562 C 970.875 410.699219 968.511719 411.449219 965.851562 411.226562 C 964.011719 411.226562 962.289062 410.699219 960.789062 409.613281 C 959.023438 408.636719 958.164062 407.136719 958.199219 405.148438 C 958.164062 404.0625 958.273438 402.976562 958.539062 401.925781 C 958.613281 400.5 958.914062 399.113281 959.476562 397.800781 L 967.164062 361.988281 L 940.386719 361.988281 C 938.136719 371.550781 936.675781 379.238281 935.25 385.3125 C 933.789062 391.425781 932.699219 396.1875 932.023438 399.710938 C 931.386719 403.273438 930.789062 406.425781 930.449219 408.335938 C 930.113281 410.136719 929.886719 411.9375 929.8125 413.773438 C 929.738281 416.699219 930.375 419.476562 931.726562 422.0625 C 932.8125 424.539062 934.460938 426.488281 936.675781 427.988281 C 938.8125 429.488281 941.136719 430.574219 943.6875 431.175781 C 946.539062 431.851562 949.425781 432.1875 952.351562 432.148438 C 956.738281 432.1875 960.898438 431.210938 964.835938 429.261719 C 968.773438 427.574219 972.074219 424.988281 974.738281 421.613281 L 975.039062 421.613281 L 972.789062 430.238281 L 998.625 430.238281 Z M 1063.613281 341.511719 L 1037.023438 341.511719 L 1032.226562 361.988281 L 1020.710938 361.988281 L 1017.039062 377.960938 L 1028.925781 377.960938 L 1022.851562 406.085938 C 1022.550781 407.699219 1022.210938 408.976562 1021.875 410.550781 C 1021.460938 412.125 1021.273438 413.738281 1021.238281 415.351562 C 1021.238281 417.976562 1021.875 420.449219 1023.148438 422.738281 C 1024.425781 425.101562 1026.226562 426.898438 1028.585938 428.175781 C 1031.175781 429.636719 1033.949219 430.5 1036.914062 430.726562 C 1039.800781 430.988281 1042.6875 431.101562 1045.574219 431.023438 C 1047.789062 430.726562 1050.335938 430.726562 1052.925781 430.425781 L 1059.976562 429.449219 L 1063.6875 410.550781 C 1062.414062 410.511719 1061.210938 410.625 1059.976562 410.886719 L 1054.875 410.886719 C 1052.960938 410.886719 1051.199219 410.550781 1050.710938 409.613281 C 1049.738281 408.898438 1049.289062 407.925781 1049.4375 406.726562 C 1049.511719 405.636719 1049.699219 404.585938 1050.113281 403.539062 C 1050.113281 402.300781 1050.335938 401.0625 1050.710938 399.863281 L 1055.511719 377.738281 L 1069.5 377.738281 L 1073.175781 361.761719 L 1058.8125 361.761719 Z M 1069.351562 430.050781 L 1095.898438 430.050781 L 1110.261719 361.949219 L 1083.75 361.949219 Z M 1115.699219 336.375 L 1089.148438 336.375 L 1085.476562 354.601562 L 1111.988281 354.601562 Z M 1141.3125 401.886719 C 1141.351562 399.710938 1141.6875 397.613281 1142.25 395.511719 C 1142.699219 392.851562 1143.414062 390.300781 1144.460938 387.824219 C 1145.699219 385.613281 1147.199219 383.585938 1148.960938 381.75 C 1150.914062 380.0625 1153.125 379.238281 1155.675781 379.199219 C 1158.710938 378.9375 1161.1875 380.023438 1163.0625 382.425781 C 1164.5625 385.460938 1165.199219 388.648438 1164.976562 391.988281 C 1165.050781 393.9375 1164.863281 395.886719 1164.375 397.761719 C 1163.773438 400.199219 1162.914062 402.523438 1161.789062 404.773438 C 1160.773438 406.949219 1159.386719 408.863281 1157.664062 410.511719 C 1155.710938 412.238281 1153.5 413.101562 1150.914062 413.101562 C 1149.261719 413.175781 1147.648438 412.835938 1146.148438 412.164062 C 1144.949219 411.523438 1143.976562 410.664062 1143.261719 409.574219 C 1142.4375 408.488281 1141.988281 407.25 1141.949219 405.863281 C 1141.574219 404.511719 1141.351562 403.125 1141.351562 401.699219 M 1114.761719 399.789062 C 1114.648438 404.925781 1115.585938 409.835938 1117.648438 414.5625 C 1119.1875 418.539062 1121.664062 421.835938 1125.039062 424.460938 C 1128.226562 427.125 1131.824219 428.925781 1135.875 429.898438 C 1140.375 431.175781 1144.949219 431.851562 1149.636719 431.8125 C 1156.6875 432.113281 1163.398438 430.6875 1169.773438 427.648438 C 1174.613281 425.289062 1178.738281 422.023438 1182.1875 417.898438 C 1185.636719 413.8125 1188.113281 409.164062 1189.613281 403.988281 C 1190.925781 399.414062 1191.675781 394.726562 1191.863281 389.925781 C 1191.898438 385.3125 1191.039062 380.8125 1189.3125 376.5 C 1187.699219 372.9375 1185.488281 369.863281 1182.601562 367.199219 C 1179.226562 364.835938 1175.625 363.039062 1171.6875 361.800781 C 1167.1875 360.710938 1162.574219 360.1875 1157.925781 360.1875 C 1151.4375 360 1145.175781 361.050781 1139.101562 363.375 C 1133.960938 365.136719 1129.5 367.914062 1125.675781 371.699219 C 1122 375.375 1119.226562 379.648438 1117.351562 384.488281 C 1115.664062 389.4375 1114.800781 394.574219 1114.761719 399.824219 M 1196.324219 430.238281 L 1222.539062 429.898438 L 1230.226562 393.789062 C 1230.601562 392.136719 1231.125 390.523438 1231.800781 388.988281 C 1232.363281 387.488281 1233.113281 386.101562 1234.050781 384.824219 C 1235.023438 383.511719 1236.226562 382.539062 1237.726562 381.9375 C 1239.375 381.261719 1241.101562 380.925781 1242.863281 380.960938 C 1244.851562 380.925781 1246.648438 381.449219 1248.300781 382.574219 C 1249.949219 383.738281 1250.699219 385.351562 1250.550781 387.375 C 1250.4375 389.175781 1250.210938 391.011719 1249.875 392.8125 C 1249.238281 394.726562 1248.9375 396.523438 1248.300781 398.851562 L 1241.585938 429.898438 L 1268.101562 429.898438 L 1276.726562 391.539062 C 1277.0625 388.988281 1277.699219 386.738281 1278.039062 384.148438 C 1278.300781 382.238281 1278.414062 380.324219 1278.375 378.375 C 1278.5625 375.488281 1278 372.675781 1276.726562 370.050781 C 1275.636719 367.613281 1273.949219 365.699219 1271.664062 364.3125 C 1269.449219 362.664062 1266.976562 361.613281 1264.273438 361.125 C 1261.425781 360.449219 1258.539062 360.113281 1255.648438 360.148438 C 1251.375 360.1875 1247.324219 361.125 1243.5 363.039062 C 1240.164062 365.0625 1237.164062 367.539062 1234.539062 370.425781 L 1236.148438 361.800781 L 1210.3125 361.800781 Z M 1283.324219 407.851562 C 1282.726562 412.238281 1283.699219 416.289062 1286.175781 419.960938 C 1288.011719 423.1875 1290.5625 425.625 1293.863281 427.351562 C 1297.238281 429.261719 1300.875 430.5 1304.699219 431.023438 C 1308.636719 431.664062 1312.574219 431.960938 1316.550781 432 C 1321.425781 432.074219 1326.226562 431.4375 1330.949219 430.085938 C 1334.925781 429.1875 1338.601562 427.574219 1342.011719 425.289062 C 1345.050781 423.148438 1347.523438 420.488281 1349.398438 417.261719 C 1350.976562 413.925781 1351.726562 410.4375 1351.648438 406.726562 C 1351.6875 403.539062 1351.125 400.460938 1350 397.460938 C 1348.574219 395.0625 1346.664062 393.148438 1344.261719 391.726562 C 1341.375 389.925781 1338.300781 388.6875 1335 388.011719 C 1331.324219 387.074219 1326.976562 386.4375 1322.210938 385.460938 C 1320.601562 385.425781 1319.101562 385.011719 1317.710938 384.1875 C 1317.148438 383.664062 1316.738281 383.023438 1316.4375 382.273438 C 1316.175781 381.5625 1316.0625 380.8125 1316.101562 380.023438 C 1316.175781 379.238281 1316.398438 378.523438 1316.8125 377.851562 C 1317.1875 377.175781 1317.710938 376.613281 1318.351562 376.164062 C 1319.960938 375.300781 1321.648438 374.886719 1323.488281 374.925781 C 1324.574219 374.851562 1325.625 374.960938 1326.675781 375.226562 C 1327.800781 375.449219 1328.886719 375.898438 1329.863281 376.5 C 1331.476562 377.960938 1332.113281 379.800781 1331.773438 381.9375 L 1355.476562 381.9375 C 1356.039062 378.039062 1355.289062 374.4375 1353.226562 371.101562 C 1351.386719 368.175781 1348.949219 365.925781 1345.835938 364.386719 C 1342.5 362.738281 1338.976562 361.6875 1335.300781 361.164062 C 1331.585938 360.824219 1327.914062 360.523438 1324.238281 360.523438 C 1320.039062 360.523438 1315.875 360.863281 1311.75 361.5 C 1307.851562 362.289062 1304.175781 363.675781 1300.6875 365.625 C 1297.386719 367.539062 1294.726562 370.085938 1292.664062 373.3125 C 1290.601562 377.101562 1289.664062 381.148438 1289.8125 385.460938 C 1289.625 388.6875 1290.375 391.648438 1292.0625 394.386719 C 1293.375 396.601562 1295.175781 398.324219 1297.460938 399.523438 C 1299.375 400.648438 1301.398438 401.511719 1303.574219 402.074219 C 1305.789062 402.414062 1307.25 402.75 1308.636719 403.050781 C 1311.226562 403.386719 1313.4375 403.988281 1315.386719 404.324219 C 1317.113281 404.4375 1318.835938 404.738281 1320.488281 405.300781 C 1321.761719 405.710938 1322.960938 406.351562 1324.011719 407.210938 C 1325.023438 407.886719 1325.4375 408.863281 1325.289062 410.101562 C 1325.324219 410.625 1325.210938 411.148438 1324.988281 411.675781 C 1324.988281 412.351562 1324.351562 412.949219 1324.011719 413.585938 C 1323.335938 414.414062 1322.476562 414.9375 1321.460938 415.199219 C 1320.148438 415.914062 1318.800781 416.210938 1317.335938 416.175781 C 1314.75 416.363281 1312.386719 415.726562 1310.289062 414.261719 C 1308.449219 412.648438 1307.585938 410.585938 1307.699219 408.148438 Z M 1283.324219 407.851562 " fill-opacity="1" fill-rule="nonzero"/><path fill="#ed1b23" d="M 17.960938 366.449219 L 599.289062 366.449219 L 586.199219 430.425781 L 5.773438 430.085938 Z M 17.960938 366.449219 " fill-opacity="1" fill-rule="evenodd"/><path fill="#ed1b23" d="M 909.113281 311.773438 L 1101.976562 311.773438 L 1114.726562 248.101562 L 995.476562 248.101562 L 1001.886719 217.125 L 1099.726562 217.125 L 1111.875 157.949219 L 1013.699219 157.949219 L 1020.113281 126.9375 L 1139.664062 126.9375 L 1152.488281 63.300781 L 959.664062 63.300781 Z M 909.113281 311.773438 " fill-opacity="1" fill-rule="nonzero"/><path fill="#ed1b23" d="M 558.675781 215.210938 C 556.800781 225.1875 552.414062 233.925781 545.550781 241.386719 C 538.835938 248.4375 534.488281 251.664062 523.164062 251.664062 C 516.636719 252.1875 510.523438 250.835938 504.824219 247.613281 C 499.125 244.425781 494.8125 239.886719 491.851562 234.074219 C 489.261719 228.863281 487.5 223.386719 486.5625 217.6875 C 485.851562 212.363281 485.398438 207.039062 485.289062 201.710938 C 485.25 192.636719 486.335938 183.675781 488.476562 174.863281 C 490.238281 165.75 493.3125 157.164062 497.738281 149.023438 C 501.863281 141.1875 507.488281 134.664062 514.6875 129.488281 C 522.300781 123.898438 530.851562 121.238281 540.300781 121.5 C 551.363281 121.5 559.761719 124.6875 564.898438 130.460938 C 570.039062 136.199219 572.886719 145.199219 572.550781 156.300781 L 641.023438 156.300781 C 641.210938 140.8125 638.210938 126 632.023438 111.824219 C 627.074219 100.273438 619.726562 90.601562 609.898438 82.761719 C 600.449219 75.300781 589.914062 70.085938 578.25 67.085938 C 565.835938 63.976562 553.238281 62.511719 540.449219 62.738281 C 521.699219 62.363281 503.738281 65.960938 486.5625 73.539062 C 471.113281 80.851562 457.761719 90.976562 446.585938 103.949219 C 435.488281 117.300781 427.164062 132.226562 421.648438 148.6875 C 415.460938 166.238281 412.460938 184.3125 412.574219 202.914062 C 412.425781 217.726562 414.5625 232.238281 418.949219 246.375 C 422.738281 259.164062 429 270.5625 437.773438 280.613281 C 446.550781 290.398438 457.011719 297.75 469.164062 302.773438 C 483.523438 308.476562 498.449219 311.136719 513.898438 310.726562 C 528.335938 310.914062 542.511719 309.113281 556.460938 305.289062 C 575.738281 298.875 591.824219 287.8125 604.6875 272.101562 C 610.085938 265.539062 614.664062 258.488281 618.449219 250.875 C 621.710938 244.386719 624.375 237.675781 626.476562 230.738281 C 628.050781 224.664062 629.363281 219.675781 630.148438 215.398438 Z M 558.675781 215.210938 " fill-opacity="1" fill-rule="nonzero"/></svg>