<svg xmlns="http://www.w3.org/2000/svg" xmlns:xlink="http://www.w3.org/1999/xlink" width="640" zoomAndPan="magnify" viewBox="0 0 480 479.999983" height="640" preserveAspectRatio="xMidYMid meet" version="1.0"><defs><clipPath id="888266cffc"><path d="M 107 87.742188 L 323 87.742188 L 323 389 L 107 389 Z M 107 87.742188 " clip-rule="nonzero"/></clipPath></defs><path fill="#ff0000" d="M 19.113281 322.535156 L 69.941406 322.535156 L 99.097656 175.984375 L 144.765625 175.984375 L 153.539062 131.605469 L 11.375 131.605469 L 2.601562 175.984375 L 48.269531 175.984375 Z M 19.113281 322.535156 " fill-opacity="1" fill-rule="nonzero"/><g clip-path="url(#888266cffc)"><path fill="#ff0000" d="M 167.722656 344.980469 L 187.328125 254.675781 L 204.617188 238.164062 L 234.546875 305.503906 L 291.566406 305.503906 L 244.09375 203.589844 L 322.785156 132.121094 L 256.734375 132.121094 L 200.488281 189.660156 L 199.972656 189.140625 L 219.839844 87.742188 L 168.753906 87.742188 L 110.957031 370.523438 L 107.347656 388.585938 C 139.339844 383.683594 157.140625 373.621094 167.722656 344.980469 Z M 167.722656 344.980469 " fill-opacity="1" fill-rule="nonzero"/></g><path fill="#ff0000" d="M 332.105469 132.121094 L 415.703125 132.121094 C 417.421875 132.121094 419.144531 132.121094 420.863281 132.121094 C 422.753906 132.121094 424.5625 132.207031 426.28125 132.378906 C 428 132.550781 429.808594 132.808594 431.699219 133.152344 C 433.417969 133.324219 435.140625 133.582031 436.859375 133.929688 C 438.40625 134.273438 439.957031 134.703125 441.503906 135.21875 C 442.878906 135.5625 444.34375 135.992188 445.890625 136.507812 C 447.265625 137.195312 448.640625 137.882812 450.019531 138.570312 C 451.394531 139.261719 452.769531 140.035156 454.144531 140.894531 C 455.351562 141.925781 456.46875 142.957031 457.5 143.992188 C 458.53125 145.023438 459.566406 146.054688 460.597656 147.085938 C 461.457031 148.289062 462.316406 149.582031 463.175781 150.957031 C 463.863281 152.160156 464.554688 153.449219 465.242188 154.828125 C 466.101562 156.546875 466.789062 158.351562 467.304688 160.246094 C 467.820312 162.136719 468.25 164.027344 468.59375 165.921875 C 468.9375 167.8125 469.195312 169.792969 469.367188 171.855469 C 469.539062 173.746094 469.625 175.640625 469.625 177.53125 C 469.625 180.457031 469.453125 183.292969 469.109375 186.046875 C 468.59375 188.96875 467.90625 191.722656 467.046875 194.300781 C 466.1875 197.054688 465.070312 199.722656 463.691406 202.300781 C 462.316406 204.707031 460.769531 207.03125 459.046875 209.265625 C 457.328125 211.503906 455.351562 213.480469 453.113281 215.203125 C 451.050781 216.921875 448.8125 218.46875 446.40625 219.84375 C 443.996094 221.222656 441.503906 222.425781 438.921875 223.457031 C 436.34375 224.316406 433.675781 225.003906 430.925781 225.523438 L 430.925781 225.78125 C 431.785156 226.125 432.558594 226.46875 433.246094 226.8125 C 434.109375 227.15625 434.96875 227.5 435.828125 227.84375 C 436.515625 228.359375 437.203125 228.875 437.890625 229.390625 C 438.578125 229.90625 439.269531 230.425781 439.957031 230.941406 C 448.46875 239.453125 448.726562 254.417969 448.46875 265.773438 C 448.46875 274.027344 447.4375 283.058594 448.46875 295.183594 C 449.242188 306.019531 453.628906 313.246094 458.789062 322.535156 L 409.511719 322.535156 C 406.414062 316.339844 402.027344 310.664062 400.480469 301.378906 C 400.308594 299.140625 400.136719 296.90625 399.964844 294.667969 C 399.792969 292.433594 399.792969 290.195312 399.964844 287.960938 C 399.964844 285.898438 400.050781 283.746094 400.222656 281.511719 C 400.394531 279.273438 400.738281 277.039062 401.253906 274.800781 C 401.425781 273.769531 401.597656 272.652344 401.769531 271.449219 C 401.769531 270.242188 401.855469 269.125 402.027344 268.09375 C 402.027344 266.890625 402.113281 265.6875 402.285156 264.480469 C 402.285156 263.277344 402.285156 262.160156 402.285156 261.128906 C 402.285156 259.921875 402.199219 258.804688 402.027344 257.773438 C 401.855469 256.742188 401.511719 255.710938 400.996094 254.675781 C 400.652344 253.816406 400.136719 252.957031 399.449219 252.097656 C 398.933594 251.066406 398.242188 250.203125 397.382812 249.515625 C 394.03125 246.679688 388.871094 245.128906 381.902344 245.128906 L 359.972656 245.128906 L 347.585938 305.761719 L 297.015625 305.761719 Z M 367.453125 207.976562 L 393.515625 207.976562 C 402.027344 207.976562 408.476562 206.171875 412.347656 202.042969 C 413.378906 201.183594 414.242188 200.238281 414.929688 199.203125 C 415.617188 198.171875 416.304688 197.054688 416.992188 195.851562 C 417.507812 194.820312 417.851562 193.613281 418.023438 192.238281 C 418.367188 191.035156 418.453125 189.746094 418.28125 188.367188 C 418.453125 188.023438 418.453125 187.679688 418.28125 187.335938 C 418.28125 186.820312 418.28125 186.390625 418.28125 186.046875 C 418.109375 185.53125 418.023438 185.101562 418.023438 184.757812 C 417.851562 184.410156 417.679688 183.980469 417.507812 183.464844 C 417.507812 183.121094 417.421875 182.691406 417.25 182.175781 C 417.078125 181.832031 416.820312 181.402344 416.476562 180.886719 C 416.304688 180.542969 416.132812 180.199219 415.960938 179.855469 C 415.617188 179.335938 415.273438 178.90625 414.929688 178.5625 C 414.585938 178.21875 414.242188 177.875 413.898438 177.53125 C 413.378906 177.1875 412.949219 176.84375 412.605469 176.5 C 412.089844 176.15625 411.574219 175.898438 411.058594 175.726562 C 410.542969 175.382812 410.027344 175.125 409.511719 174.953125 C 408.996094 174.78125 408.390625 174.523438 407.703125 174.175781 C 407.015625 174.003906 406.328125 173.832031 405.640625 173.660156 C 404.953125 173.660156 404.179688 173.574219 403.316406 173.402344 C 402.628906 173.402344 401.941406 173.402344 401.253906 173.402344 L 374.164062 173.402344 Z M 367.453125 207.976562 " fill-opacity="1" fill-rule="evenodd"/></svg>